<svg xmlns="http://www.w3.org/2000/svg" width="1180" height="450" viewBox="0 0 1180 450">
<rect width="1180" height="450" fill="#f8fafc"/>
<text x="48" y="58" font-family="Inter, Microsoft YaHei, Arial" font-size="30" font-weight="800" fill="#0f172a">LLM 推理调度 / KV Cache / 长上下文官方对标闭环</text>
<text x="48" y="92" font-family="Inter, Microsoft YaHei, Arial" font-size="17" fill="#475569">从 prefill/decode、continuous batching、PagedAttention、prefix cache 到长上下文 SLO。</text>
<rect x="48" y="145" width="158" height="174" rx="16" fill="#ffffff" stroke="#dbeafe"/>
<rect x="48" y="145" width="158" height="7" rx="3" fill="#0891b2"/>
<text x="70" y="193" font-family="Inter, Microsoft YaHei, Arial" font-size="24" font-weight="800" fill="#0891b2">1</text>
<text x="70" y="231" font-family="Inter, Microsoft YaHei, Arial" font-size="18" font-weight="800" fill="#0f172a">请求入口</text>
<text x="70" y="267" font-family="Inter, Microsoft YaHei, Arial" font-size="13" fill="#475569">prompt/tokenizer</text>
<line x1="209" y1="232" x2="220" y2="232" stroke="#94a3b8" stroke-width="2"/>
<path d="M 220 232 l -7 -5 v10 z" fill="#94a3b8"/>
<rect x="228" y="145" width="158" height="174" rx="16" fill="#ffffff" stroke="#dbeafe"/>
<rect x="228" y="145" width="158" height="7" rx="3" fill="#059669"/>
<text x="250" y="193" font-family="Inter, Microsoft YaHei, Arial" font-size="24" font-weight="800" fill="#059669">2</text>
<text x="250" y="231" font-family="Inter, Microsoft YaHei, Arial" font-size="18" font-weight="800" fill="#0f172a">Prefill</text>
<text x="250" y="267" font-family="Inter, Microsoft YaHei, Arial" font-size="13" fill="#475569">parallel/TTFT</text>
<line x1="389" y1="232" x2="400" y2="232" stroke="#94a3b8" stroke-width="2"/>
<path d="M 400 232 l -7 -5 v10 z" fill="#94a3b8"/>
<rect x="408" y="145" width="158" height="174" rx="16" fill="#ffffff" stroke="#dbeafe"/>
<rect x="408" y="145" width="158" height="7" rx="3" fill="#d97706"/>
<text x="430" y="193" font-family="Inter, Microsoft YaHei, Arial" font-size="24" font-weight="800" fill="#d97706">3</text>
<text x="430" y="231" font-family="Inter, Microsoft YaHei, Arial" font-size="18" font-weight="800" fill="#0f172a">Decode</text>
<text x="430" y="267" font-family="Inter, Microsoft YaHei, Arial" font-size="13" fill="#475569">one token step</text>
<line x1="569" y1="232" x2="580" y2="232" stroke="#94a3b8" stroke-width="2"/>
<path d="M 580 232 l -7 -5 v10 z" fill="#94a3b8"/>
<rect x="588" y="145" width="158" height="174" rx="16" fill="#ffffff" stroke="#dbeafe"/>
<rect x="588" y="145" width="158" height="7" rx="3" fill="#7c3aed"/>
<text x="610" y="193" font-family="Inter, Microsoft YaHei, Arial" font-size="24" font-weight="800" fill="#7c3aed">4</text>
<text x="610" y="231" font-family="Inter, Microsoft YaHei, Arial" font-size="18" font-weight="800" fill="#0f172a">KV Cache</text>
<text x="610" y="267" font-family="Inter, Microsoft YaHei, Arial" font-size="13" fill="#475569">paged/quant/offload</text>
<line x1="749" y1="232" x2="760" y2="232" stroke="#94a3b8" stroke-width="2"/>
<path d="M 760 232 l -7 -5 v10 z" fill="#94a3b8"/>
<rect x="768" y="145" width="158" height="174" rx="16" fill="#ffffff" stroke="#dbeafe"/>
<rect x="768" y="145" width="158" height="7" rx="3" fill="#dc2626"/>
<text x="790" y="193" font-family="Inter, Microsoft YaHei, Arial" font-size="24" font-weight="800" fill="#dc2626">5</text>
<text x="790" y="231" font-family="Inter, Microsoft YaHei, Arial" font-size="18" font-weight="800" fill="#0f172a">调度优化</text>
<text x="790" y="267" font-family="Inter, Microsoft YaHei, Arial" font-size="13" fill="#475569">batch/prefix/spec</text>
<line x1="929" y1="232" x2="940" y2="232" stroke="#94a3b8" stroke-width="2"/>
<path d="M 940 232 l -7 -5 v10 z" fill="#94a3b8"/>
<rect x="948" y="145" width="158" height="174" rx="16" fill="#ffffff" stroke="#dbeafe"/>
<rect x="948" y="145" width="158" height="7" rx="3" fill="#0891b2"/>
<text x="970" y="193" font-family="Inter, Microsoft YaHei, Arial" font-size="24" font-weight="800" fill="#0891b2">6</text>
<text x="970" y="231" font-family="Inter, Microsoft YaHei, Arial" font-size="18" font-weight="800" fill="#0f172a">SLO 验收</text>
<text x="970" y="267" font-family="Inter, Microsoft YaHei, Arial" font-size="13" fill="#475569">p50/p99/cost</text>
<rect x="48" y="360" width="1084" height="48" rx="14" fill="#e0f2fe" stroke="#bae6fd"/>
<text x="72" y="390" font-family="Inter, Microsoft YaHei, Arial" font-size="16" fill="#075985">验收口径：必须能运行最小实验，解释指标，定位失败，并把结论写进项目报告或 README。</text>
</svg>